<?xml version="1.0"?>
<!-- Generated by SVGo -->
<svg width="550" height="450"
     xmlns="http://www.w3.org/2000/svg"
     xmlns:xlink="http://www.w3.org/1999/xlink">
<rect x="0" y="0" width="550" height="450" rx="15" ry="15" style="fill:snow;stroke:black;stroke-width:3" />
<g style="fill:none;stroke:black;stroke-width:3">
<line x1="74" y1="60" x2="110" y2="60" />
<line x1="92" y1="60" x2="92" y2="92" />
<text x="92" y="50" style="text-anchor:middle;font-size:20px;fill:black;stroke-width:1;alignment-baseline:middle" >+5v</text>
<line x1="92" y1="92" x2="452" y2="92" />
<polyline points="164,92 164,104 182,110 146,116 182,122 146,128 182,134 146,140 164,146 164,164" />
<text x="194" y="142" style="text-anchor:left;font-size:20px;fill:black;stroke-width:1;alignment-baseline:middle" >1k0</text>
<line x1="164" y1="164" x2="164" y2="184" />
<polygon points="146,184 182,184 164,216" />
<line x1="146" y1="216" x2="182" y2="216" />
<line x1="164" y1="216" x2="164" y2="236" />
<line x1="182" y1="194" x2="189" y2="189" />
<line x1="182" y1="199" x2="189" y2="199" />
<line x1="182" y1="204" x2="189" y2="209" />
<text x="194" y="184" style="text-anchor:left;font-size:20px;fill:black;stroke-width:1;alignment-baseline:middle" >Red</text>
<polygon points="30,251 82,251 92,236 82,221 30,221" />
<text x="35" y="236" style="text-anchor:start;font-size:20px;fill:black;stroke-width:1;alignment-baseline:middle" >GP18</text>
<line x1="92" y1="236" x2="107" y2="236" />
<polygon points="107,254 139,236 107,218" />
<line x1="149" y1="236" x2="164" y2="236" />
<circle cx="144" cy="236" r="5" />
<text x="87" y="276" style="text-anchor:center;font-size:20px;fill:black;stroke-width:1;alignment-baseline:middle" >74ahct14</text>
<polyline points="308,92 308,104 326,110 290,116 326,122 290,128 326,134 290,140 308,146 308,164" />
<text x="338" y="142" style="text-anchor:left;font-size:20px;fill:black;stroke-width:1;alignment-baseline:middle" >1k0</text>
<line x1="308" y1="164" x2="308" y2="184" />
<polygon points="290,184 326,184 308,216" />
<line x1="290" y1="216" x2="326" y2="216" />
<line x1="308" y1="216" x2="308" y2="236" />
<line x1="326" y1="194" x2="333" y2="189" />
<line x1="326" y1="199" x2="333" y2="199" />
<line x1="326" y1="204" x2="333" y2="209" />
<text x="338" y="184" style="text-anchor:left;font-size:20px;fill:black;stroke-width:1;alignment-baseline:middle" >Green</text>
<polygon points="30,323 82,323 92,308 82,293 30,293" />
<text x="35" y="308" style="text-anchor:start;font-size:20px;fill:black;stroke-width:1;alignment-baseline:middle" >GP19</text>
<line x1="92" y1="308" x2="107" y2="308" />
<polygon points="107,326 139,308 107,290" />
<line x1="149" y1="308" x2="164" y2="308" />
<circle cx="144" cy="308" r="5" />
<text x="87" y="348" style="text-anchor:center;font-size:20px;fill:black;stroke-width:1;alignment-baseline:middle" >74ahct14</text>
<line x1="164" y1="308" x2="308" y2="308" />
<line x1="308" y1="308" x2="308" y2="236" />
<polyline points="452,92 452,104 470,110 434,116 470,122 434,128 470,134 434,140 452,146 452,164" />
<text x="482" y="142" style="text-anchor:left;font-size:20px;fill:black;stroke-width:1;alignment-baseline:middle" >1k0</text>
<line x1="452" y1="164" x2="452" y2="184" />
<polygon points="434,184 470,184 452,216" />
<line x1="434" y1="216" x2="470" y2="216" />
<line x1="452" y1="216" x2="452" y2="236" />
<line x1="470" y1="194" x2="477" y2="189" />
<line x1="470" y1="199" x2="477" y2="199" />
<line x1="470" y1="204" x2="477" y2="209" />
<text x="482" y="184" style="text-anchor:left;font-size:20px;fill:black;stroke-width:1;alignment-baseline:middle" >Blue</text>
<polygon points="30,395 82,395 92,380 82,365 30,365" />
<text x="35" y="380" style="text-anchor:start;font-size:20px;fill:black;stroke-width:1;alignment-baseline:middle" >GP20</text>
<line x1="92" y1="380" x2="107" y2="380" />
<polygon points="107,398 139,380 107,362" />
<line x1="149" y1="380" x2="164" y2="380" />
<circle cx="144" cy="380" r="5" />
<text x="87" y="420" style="text-anchor:center;font-size:20px;fill:black;stroke-width:1;alignment-baseline:middle" >74ahct14</text>
<line x1="164" y1="380" x2="452" y2="380" />
<line x1="452" y1="380" x2="452" y2="236" />
</g>
</svg>
