<?xml version="1.0"?>
<!-- Generated by SVGo -->
<svg width="250" height="350"
     xmlns="http://www.w3.org/2000/svg"
     xmlns:xlink="http://www.w3.org/1999/xlink">
<rect x="0" y="0" width="250" height="350" rx="15" ry="15" style="fill:snow;stroke:black;stroke-width:3" />
<g style="fill:none;stroke:black;stroke-width:3">
<line x1="146" y1="60" x2="182" y2="60" />
<line x1="164" y1="60" x2="164" y2="92" />
<text x="164" y="50" style="text-anchor:middle;font-size:20px;fill:black;stroke-width:1;alignment-baseline:middle" >+3v3</text>
<polyline points="164,92 164,106 182,112 146,118 182,124 146,130 182,136 146,142 182,148 146,154 182,160 146,166 182,172 146,178 182,184 146,190 182,196 146,202 164,208 164,236" />
<line x1="92" y1="164" x2="146" y2="164" />
<line x1="140" y1="154" x2="146" y2="164" />
<line x1="140" y1="174" x2="146" y2="164" />
<line x1="164" y1="236" x2="164" y2="256" />
<line x1="144" y1="256" x2="184" y2="256" />
<line x1="150" y1="266" x2="178" y2="266" />
<line x1="156" y1="276" x2="172" y2="276" />
<polygon points="92,179 40,179 30,164 40,149 92,149" />
<text x="40" y="164" style="text-anchor:start;font-size:20px;fill:black;stroke-width:1;alignment-baseline:middle" >GP28</text>
</g>
</svg>
