<?xml version="1.0"?>
<!-- Generated by SVGo -->
<svg width="300" height="300"
     xmlns="http://www.w3.org/2000/svg"
     xmlns:xlink="http://www.w3.org/1999/xlink">
<rect x="0" y="0" width="300" height="300" rx="15" ry="15" style="fill:snow;stroke:black;stroke-width:3" />
<g style="fill:none;stroke:black;stroke-width:3">
<line x1="146" y1="60" x2="182" y2="60" />
<line x1="164" y1="60" x2="164" y2="92" />
<text x="164" y="50" style="text-anchor:middle;font-size:20px;fill:black;stroke-width:1;alignment-baseline:middle" >+5V</text>
<polyline points="164,92 164,104 182,110 146,116 182,122 146,128 182,134 146,140 164,146 164,164" />
<text x="194" y="142" style="text-anchor:left;font-size:20px;fill:black;stroke-width:1;alignment-baseline:middle" >1k0</text>
<line x1="164" y1="164" x2="164" y2="184" />
<polygon points="146,184 182,184 164,216" />
<line x1="146" y1="216" x2="182" y2="216" />
<line x1="164" y1="216" x2="164" y2="236" />
<line x1="182" y1="194" x2="189" y2="189" />
<line x1="182" y1="199" x2="189" y2="199" />
<line x1="182" y1="204" x2="189" y2="209" />
<text x="194" y="184" style="text-anchor:left;font-size:20px;fill:black;stroke-width:1;alignment-baseline:middle" >Red</text>
<polygon points="30,251 82,251 92,236 82,221 30,221" />
<text x="35" y="236" style="text-anchor:start;font-size:20px;fill:black;stroke-width:1;alignment-baseline:middle" >GP18</text>
<line x1="92" y1="236" x2="107" y2="236" />
<polygon points="107,254 139,236 107,218" />
<line x1="149" y1="236" x2="164" y2="236" />
<circle cx="144" cy="236" r="5" />
<text x="87" y="276" style="text-anchor:center;font-size:20px;fill:black;stroke-width:1;alignment-baseline:middle" >74ahct14</text>
</g>
</svg>
