<?xml version="1.0"?>
<!-- Generated by SVGo -->
<svg width="500" height="250"
     xmlns="http://www.w3.org/2000/svg"
     xmlns:xlink="http://www.w3.org/1999/xlink">
<rect x="0" y="0" width="500" height="250" rx="15" ry="15" style="fill:snow;stroke:black;stroke-width:3" />
<g style="fill:none;stroke:black;stroke-width:3">
<path d="M112,79 A72,72 0 0 0 54,163" style="fill:gray;stroke:none" />
<polygon points="125,150 112,79 54,163" style="fill:gray;stroke:none" />
<path d="M138,221 A72,72 0 0 0 196,137" style="fill:gray;stroke:none" />
<polygon points="125,150 138,221 196,137" style="fill:gray;stroke:none" />
<circle cx="125" cy="150" r="72" />
<circle cx="125" cy="150" r="10" style="fill:black" />
<text x="145" y="115" style="text-anchor:middle;font-size:20px;fill:black;stroke-width:1;alignment-baseline:middle" >1</text>
<text x="90" y="130" style="text-anchor:middle;font-size:20px;fill:black;stroke-width:1;alignment-baseline:middle" >0</text>
<text x="105" y="185" style="text-anchor:middle;font-size:20px;fill:black;stroke-width:1;alignment-baseline:middle" >1</text>
<text x="160" y="170" style="text-anchor:middle;font-size:20px;fill:black;stroke-width:1;alignment-baseline:middle" >0</text>
<polygon points="200,150 215,142 215,158" style="stroke:blue;fill:blue" />
<text x="222" y="124" style="text-anchor:middle;font-size:20px;fill:black;stroke-width:1;alignment-baseline:middle" >A</text>
<polygon points="178,97 183,81 194,92" style="stroke:blue;fill:blue" />
<text x="175" y="63" style="text-anchor:middle;font-size:20px;fill:black;stroke-width:1;alignment-baseline:middle" >B</text>
<path d="M125,60 A90,90 0 0 0 80,72" />
<polyline points="116,50 125,60 118,70" />
<text x="87" y="47" style="text-anchor:middle;font-size:20px;fill:black;stroke-width:1;alignment-baseline:middle" >(+1)</text>
<path d="M363,79 A72,72 0 0 0 279,137" style="fill:gray;stroke:none" />
<polygon points="350,150 363,79 279,137" style="fill:gray;stroke:none" />
<path d="M337,221 A72,72 0 0 0 421,163" style="fill:gray;stroke:none" />
<polygon points="350,150 337,221 421,163" style="fill:gray;stroke:none" />
<circle cx="350" cy="150" r="72" />
<circle cx="350" cy="150" r="10" style="fill:black" />
<text x="385" y="130" style="text-anchor:middle;font-size:20px;fill:black;stroke-width:1;alignment-baseline:middle" >1</text>
<text x="330" y="115" style="text-anchor:middle;font-size:20px;fill:black;stroke-width:1;alignment-baseline:middle" >0</text>
<text x="315" y="170" style="text-anchor:middle;font-size:20px;fill:black;stroke-width:1;alignment-baseline:middle" >1</text>
<text x="370" y="185" style="text-anchor:middle;font-size:20px;fill:black;stroke-width:1;alignment-baseline:middle" >0</text>
<polygon points="425,150 440,142 440,158" style="stroke:blue;fill:blue" />
<text x="447" y="124" style="text-anchor:middle;font-size:20px;fill:black;stroke-width:1;alignment-baseline:middle" >A</text>
<polygon points="403,97 408,81 419,92" style="stroke:blue;fill:blue" />
<text x="400" y="63" style="text-anchor:middle;font-size:20px;fill:black;stroke-width:1;alignment-baseline:middle" >B</text>
<path d="M350,60 A90,90 0 0 0 305,72" />
<polyline points="308,59 305,72 316,77" />
<text x="331" y="42" style="text-anchor:middle;font-size:20px;fill:black;stroke-width:1;alignment-baseline:middle" >(-1)</text>
</g>
</svg>
